HIERARCHY
ROOT Hips
{
	OFFSET 0.000000 35.082581 0.000000
	CHANNELS 6 Xposition Yposition Zposition Xrotation Yrotation Zrotation 
	JOINT Spine
	{
		OFFSET 0.000000 6.876099 0.125700
		CHANNELS 3 Xrotation Yrotation Zrotation
		JOINT Spine1
		{
			OFFSET 0.000000 5.730043 0.104720
			CHANNELS 3 Xrotation Yrotation Zrotation
			JOINT Spine1_split
			{
				OFFSET 0.000000 5.730043 0.104720
				CHANNELS 3 Xrotation Yrotation Zrotation
				JOINT Spine2
				{
					OFFSET 0.000000 5.730043 0.104720
					CHANNELS 3 Xrotation Yrotation Zrotation
					JOINT Neck
					{
						OFFSET 0.000000 10.314075 0.188496
						CHANNELS 3 Xrotation Yrotation Zrotation
						JOINT Head
						{
							OFFSET 0.000000 7.643700 -2.377400
							CHANNELS 3 Xrotation Yrotation Zrotation
							JOINT HeadTop_End
							{
								OFFSET 0.000000 43.788605 -13.619600
								CHANNELS 3 Xrotation Yrotation Zrotation
								End Site
								{
									OFFSET 0.000000 0.000000 0.000000
								}
							}
						}
					}
					JOINT LeftShoulder
					{
						OFFSET 2.196100 4.412489 0.087492
						CHANNELS 3 Xrotation Yrotation Zrotation
						JOINT LeftShoulder_split
						{
							OFFSET 2.196100 4.412489 0.087492
							CHANNELS 3 Xrotation Yrotation Zrotation
							JOINT LeftArm
							{
								OFFSET 8.771219 -2.981674 -0.026999
								CHANNELS 3 Xrotation Yrotation Zrotation
								JOINT LeftForeArm
								{
									OFFSET 8.512804 0.000000 -0.000000
									CHANNELS 3 Xrotation Yrotation Zrotation
									JOINT LeftHand
									{
										OFFSET 18.484802 0.000000 -0.000000
										CHANNELS 3 Xrotation Yrotation Zrotation
										JOINT LeftHandThumb1
										{
											OFFSET 2.499420 -1.158070 2.653252
											CHANNELS 3 Xrotation Yrotation Zrotation
											JOINT LeftHandThumb2
											{
												OFFSET 2.370079 -1.368366 1.368366
												CHANNELS 3 Xrotation Yrotation Zrotation
												JOINT LeftHandThumb3
												{
													OFFSET 2.676727 -1.545410 1.545409
													CHANNELS 3 Xrotation Yrotation Zrotation
													JOINT LeftHandThumb4
													{
														OFFSET 1.692226 -0.977005 0.977007
														CHANNELS 3 Xrotation Yrotation Zrotation
														End Site
														{
															OFFSET 0.000000 0.000000 0.000000
														}
													}
												}
											}
										}
										JOINT LeftHandIndex1
										{
											OFFSET 7.924831 -0.457527 2.345128
											CHANNELS 3 Xrotation Yrotation Zrotation
											JOINT LeftHandIndex2
											{
												OFFSET 3.643303 0.000000 0.000000
												CHANNELS 3 Xrotation Yrotation Zrotation
												JOINT LeftHandIndex3
												{
													OFFSET 3.810799 0.000000 0.000000
													CHANNELS 3 Xrotation Yrotation Zrotation
													JOINT LeftHandIndex4
													{
														OFFSET 2.403702 0.000000 0.000000
														CHANNELS 3 Xrotation Yrotation Zrotation
														End Site
														{
															OFFSET 0.000000 0.000000 0.000000
														}
													}
												}
											}
										}
										JOINT LeftHandMiddle1
										{
											OFFSET 8.563995 0.000000 -0.000000
											CHANNELS 3 Xrotation Yrotation Zrotation
											JOINT LeftHandMiddle2
											{
												OFFSET 3.861618 0.000000 0.000000
												CHANNELS 3 Xrotation Yrotation Zrotation
												JOINT LeftHandMiddle3
												{
													OFFSET 3.701603 0.000000 0.000000
													CHANNELS 3 Xrotation Yrotation Zrotation
													JOINT LeftHandMiddle4
													{
														OFFSET 2.322544 0.000000 0.000000
														CHANNELS 3 Xrotation Yrotation Zrotation
														End Site
														{
															OFFSET 0.000000 0.000000 0.000000
														}
													}
												}
											}
										}
										JOINT LeftHandRing1
										{
											OFFSET 8.426460 -0.424637 -3.286992
											CHANNELS 3 Xrotation Yrotation Zrotation
											JOINT LeftHandRing2
											{
												OFFSET 3.126408 0.000000 0.000000
												CHANNELS 3 Xrotation Yrotation Zrotation
												JOINT LeftHandRing3
												{
													OFFSET 3.085026 0.000000 0.000000
													CHANNELS 3 Xrotation Yrotation Zrotation
													JOINT LeftHandRing4
													{
														OFFSET 1.644005 0.000000 0.000000
														CHANNELS 3 Xrotation Yrotation Zrotation
														End Site
														{
															OFFSET 0.000000 0.000000 0.000000
														}
													}
												}
											}
										}
									}
								}
							}
						}
					}
					JOINT RightShoulder
					{
						OFFSET -2.196100 4.412496 0.070690
						CHANNELS 3 Xrotation Yrotation Zrotation
						JOINT RightShoulder_split
						{
							OFFSET -2.196100 4.412496 0.070690
							CHANNELS 3 Xrotation Yrotation Zrotation
							JOINT RightArm
							{
								OFFSET -8.771282 -2.981682 -0.094208
								CHANNELS 3 Xrotation Yrotation Zrotation
								JOINT RightForeArm
								{
									OFFSET -8.494598 0.000000 0.000000
									CHANNELS 3 Xrotation Yrotation Zrotation
									JOINT RightHand
									{
										OFFSET -18.483803 0.000000 0.000001
										CHANNELS 3 Xrotation Yrotation Zrotation
										JOINT RightHandThumb1
										{
											OFFSET -2.527351 -1.008072 2.575253
											CHANNELS 3 Xrotation Yrotation Zrotation
											JOINT RightHandThumb2
											{
												OFFSET -2.321518 -1.340328 1.340329
												CHANNELS 3 Xrotation Yrotation Zrotation
												JOINT RightHandThumb3
												{
													OFFSET -2.657753 -1.534454 1.534455
													CHANNELS 3 Xrotation Yrotation Zrotation
													JOINT RightHandThumb4
													{
														OFFSET -1.807510 -1.043568 1.043567
														CHANNELS 3 Xrotation Yrotation Zrotation
														End Site
														{
															OFFSET 0.000000 0.000000 0.000000
														}
													}
												}
											}
										}
										JOINT RightHandIndex1
										{
											OFFSET -8.811420 0.015533 2.887987
											CHANNELS 3 Xrotation Yrotation Zrotation
											JOINT RightHandIndex2
											{
												OFFSET -3.537502 0.000000 0.000000
												CHANNELS 3 Xrotation Yrotation Zrotation
												JOINT RightHandIndex3
												{
													OFFSET -3.356201 0.000000 0.000000
													CHANNELS 3 Xrotation Yrotation Zrotation
													JOINT RightHandIndex4
													{
														OFFSET -1.933098 0.000000 0.000000
														CHANNELS 3 Xrotation Yrotation Zrotation
														End Site
														{
															OFFSET 0.000000 0.000000 0.000000
														}
													}
												}
											}
										}
										JOINT RightHandMiddle1
										{
											OFFSET -8.178135 0.000000 0.000000
											CHANNELS 3 Xrotation Yrotation Zrotation
											JOINT RightHandMiddle2
											{
												OFFSET -3.901302 0.000000 0.000000
												CHANNELS 3 Xrotation Yrotation Zrotation
												JOINT RightHandMiddle3
												{
													OFFSET -3.909599 0.000000 0.000000
													CHANNELS 3 Xrotation Yrotation Zrotation
													JOINT RightHandMiddle4
													{
														OFFSET -2.376003 0.000000 0.000000
														CHANNELS 3 Xrotation Yrotation Zrotation
														End Site
														{
															OFFSET 0.000000 0.000000 0.000000
														}
													}
												}
											}
										}
										JOINT RightHandRing1
										{
											OFFSET -7.559013 0.014137 -2.865403
											CHANNELS 3 Xrotation Yrotation Zrotation
											JOINT RightHandRing2
											{
												OFFSET -3.449306 0.000000 0.000000
												CHANNELS 3 Xrotation Yrotation Zrotation
												JOINT RightHandRing3
												{
													OFFSET -3.362106 0.000000 0.000000
													CHANNELS 3 Xrotation Yrotation Zrotation
													JOINT RightHandRing4
													{
														OFFSET -2.076401 0.000000 0.000000
														CHANNELS 3 Xrotation Yrotation Zrotation
														End Site
														{
															OFFSET 0.000000 0.000000 0.000000
														}
													}
												}
											}
										}
									}
								}
							}
						}
					}
				}
			}
		}
	}
	JOINT LeftUpLeg
	{
		OFFSET 10.205400 -3.823500 0.155100
		CHANNELS 3 Xrotation Yrotation Zrotation
		JOINT LeftLeg
		{
			OFFSET 0.708757 -12.982077 0.567790
			CHANNELS 3 Xrotation Yrotation Zrotation
			JOINT LeftFoot
			{
				OFFSET -0.708756 -10.717838 -2.184338
				CHANNELS 3 Xrotation Yrotation Zrotation
				JOINT LeftToeBase
				{
					OFFSET 0.108149 -7.191104 7.560241
					CHANNELS 3 Xrotation Yrotation Zrotation
					JOINT LeftToe_End
					{
						OFFSET 0.070230 0.081724 4.490308
						CHANNELS 3 Xrotation Yrotation Zrotation
						End Site
						{
							OFFSET 0.000000 0.000000 0.000000
						}
					}
				}
			}
		}
	}
	JOINT RightUpLeg
	{
		OFFSET -10.205400 -3.823500 0.005500
		CHANNELS 3 Xrotation Yrotation Zrotation
		JOINT RightLeg
		{
			OFFSET -0.708756 -12.982134 0.610632
			CHANNELS 3 Xrotation Yrotation Zrotation
			JOINT RightFoot
			{
				OFFSET 0.708754 -10.717769 -1.945823
				CHANNELS 3 Xrotation Yrotation Zrotation
				JOINT RightToeBase
				{
					OFFSET -0.108140 -7.191069 7.372968
					CHANNELS 3 Xrotation Yrotation Zrotation
					JOINT RightToe_End
					{
						OFFSET -0.070227 0.081735 4.479403
						CHANNELS 3 Xrotation Yrotation Zrotation
						End Site
						{
							OFFSET 0.000000 0.000000 0.000000
						}
					}
				}
			}
		}
	}
}
MOTION
Frames: 5
Frame Time: 0.016667
0.822183 35.038609 -1.060540 -3.424309 3.946120 -3.196275 7.486802 -0.427788 -0.768866 -2.114713 -0.634067 1.955413 0.000000 0.000000 0.000000 -2.107417 -0.526125 1.991271 -6.842737 -2.682117 0.508893 2.526785 0.702883 0.466853 0.000000 0.000000 0.000000 1.091366 1.577361 -3.543047 0.000000 0.000000 0.000000 -1.207959 1.492943 -78.012775 20.698682 -13.799229 -0.079246 -0.026789 -3.262855 -0.409713 10.557704 -2.873402 25.085820 -5.464167 26.111887 -7.055815 -6.646967 3.833436 -2.621007 -0.000001 -0.000002 0.000001 2.372217 3.636008 -10.145442 -2.155760 2.456256 -20.339699 -1.885474 4.845585 -16.122646 0.000001 -0.000000 0.000000 -1.984295 5.666077 -18.668015 0.262857 5.090464 -32.022427 -0.652730 1.126032 -16.743404 0.000000 0.000002 0.000001 -4.974579 10.107086 -16.316144 4.008930 4.056163 -38.803695 2.114498 3.156543 -21.139533 0.000001 0.000002 0.000000 0.487478 5.285028 4.297983 0.000000 0.000000 0.000000 -7.282519 4.832125 74.584853 13.988542 13.383138 -4.466988 0.106877 3.530083 -2.699081 15.566064 -0.729100 -16.762766 -6.579413 -24.370064 7.035613 -11.554974 5.741397 5.172655 -0.000003 0.000001 -0.000002 2.252286 -2.297214 4.747747 -2.162984 -2.444717 14.947866 -1.899818 -4.850721 10.729858 0.000002 0.000001 0.000000 -1.987001 -5.675771 8.743288 0.263308 -5.087448 22.099615 -0.663548 -1.134443 6.819818 0.000001 0.000001 0.000000 -4.977272 -10.114523 7.762305 4.005869 -4.045814 30.251051 2.108935 -3.152168 12.586672 0.000001 -0.000001 0.000000 -35.576710 -8.322837 -4.613633 58.199140 0.996556 0.543378 18.799259 2.532858 12.534671 -30.149456 0.513611 -5.652273 0.000000 -0.000000 -0.000001 -13.721417 -10.729148 7.902268 32.429287 -0.058951 1.200553 9.654577 -0.789469 -9.033488 -26.815755 1.229715 -0.013265 0.000000 -0.000000 -0.000000 
0.824283 35.109756 -0.418799 -3.032803 3.389998 -2.705257 7.156248 -0.271932 -0.982377 -2.090693 -0.448767 1.814106 0.000000 0.000000 0.000000 -2.078975 -0.346472 1.846579 -6.918092 -2.365406 0.359196 2.758872 0.881738 0.742510 -0.000001 0.000000 0.000000 1.113567 2.099116 -3.775951 0.000000 0.000000 0.000000 -1.049472 1.509240 -77.890794 22.585009 -13.984399 0.425083 -0.073505 -2.782482 -1.181347 10.559554 -2.850890 25.087982 -5.399132 26.208073 -7.056709 -6.608784 3.909425 -2.603657 0.000001 0.000001 -0.000002 2.371343 3.631460 -10.250484 -2.155589 2.457890 -20.421246 -1.885385 4.845972 -16.204281 0.000002 0.000002 0.000001 -1.983702 5.667481 -18.758741 0.262896 5.090886 -32.139360 -0.652632 1.128119 -16.860286 0.000001 -0.000001 -0.000001 -4.974851 10.106014 -16.411109 4.008876 4.055673 -38.919705 2.115099 3.156113 -21.255521 0.000001 -0.000001 -0.000001 0.496343 5.504693 4.289095 0.000000 0.000000 0.000000 -7.589868 5.574949 74.483800 15.755884 14.490851 -5.636439 0.036782 2.963950 -2.025694 15.550746 -0.718125 -16.790116 -6.612702 -24.317533 7.035359 -11.558468 5.748784 5.175947 -0.000002 0.000000 0.000005 2.246710 -2.245047 4.764509 -2.162986 -2.443913 14.905578 -1.901188 -4.850233 10.687515 -0.000001 0.000000 -0.000000 -1.995174 -5.622321 8.773660 0.264331 -5.087742 22.134521 -0.663603 -1.135045 6.854713 0.000002 0.000000 -0.000000 -4.977494 -10.115054 7.789060 4.005088 -4.044423 30.441777 2.109407 -3.151008 12.777389 0.000001 0.000001 0.000001 -36.381651 -7.312737 -4.724665 53.461786 1.315976 0.453633 20.185804 2.503198 12.360287 -29.030572 0.317453 -4.379444 -0.000000 0.000001 -0.000000 -12.834041 -11.140914 6.999379 32.843866 1.412590 1.474902 8.037475 -0.939977 -9.345797 -27.168923 1.203828 0.314584 -0.000000 -0.000000 0.000000 
0.808760 35.206135 0.283833 -2.705172 2.951052 -2.368193 6.866796 -0.132885 -0.947883 -2.080432 -0.313498 1.675650 0.000000 0.000000 0.000000 -2.058832 -0.215385 1.707925 -6.824232 -1.991732 0.148009 2.570388 1.192967 0.558138 0.000000 0.000000 -0.000000 1.161767 2.620604 -4.138928 0.000000 0.000000 0.000000 -0.675555 1.681688 -77.754013 23.741078 -14.201293 0.898233 -0.068918 -3.014303 -2.607524 10.564669 -2.788243 25.093990 -5.218055 26.476033 -7.060063 -6.502701 4.121107 -2.555626 0.000002 0.000003 0.000001 2.368894 3.618893 -10.542924 -2.155440 2.457281 -20.648557 -1.885190 4.847068 -16.431483 -0.000001 0.000001 0.000002 -1.982025 5.665980 -19.011644 0.263180 5.092150 -32.464760 -0.651839 1.128070 -17.185808 0.000001 0.000002 0.000002 -4.975694 10.103259 -16.675507 4.008817 4.054416 -39.242452 2.116747 3.154998 -21.578393 -0.000000 -0.000001 -0.000000 0.521037 5.806644 4.065542 0.000000 0.000000 0.000000 -8.045854 5.987375 74.740363 12.972006 13.640122 -3.836558 0.904500 8.387691 -8.131745 15.508214 -0.687449 -16.866093 -6.705451 -24.171377 7.034802 -11.568190 5.769279 5.185193 0.000002 0.000000 0.000005 2.231064 -2.099795 4.811200 -2.162884 -2.441596 14.787998 -1.900852 -4.849361 10.569781 -0.000002 -0.000001 0.000000 -2.018294 -5.473573 8.858206 0.267201 -5.088517 22.231808 -0.663815 -1.136781 6.951797 -0.000002 0.000001 0.000002 -4.976997 -10.116604 7.863839 4.003016 -4.040801 30.972572 2.110809 -3.147931 13.308423 0.000002 0.000001 0.000004 -36.967040 -6.063362 -4.571780 48.531462 0.834953 0.325481 20.684714 2.377211 11.284282 -26.021071 0.033118 -1.085497 0.000001 -0.000001 0.000001 -11.080762 -11.651463 6.267945 32.202778 2.586642 1.739713 6.561023 -0.959873 -9.481406 -27.699426 1.173566 0.505567 0.000000 0.000000 -0.000000 
0.820351 35.245979 0.965463 -2.331799 2.415952 -2.145296 6.710501 0.009449 -0.738875 -2.159529 -0.186708 1.502792 0.000000 0.000000 0.000000 -2.121955 -0.096244 1.529946 -6.735156 -1.547358 -0.209004 2.544873 1.437756 0.726827 -0.000000 -0.000000 0.000000 1.230186 3.222548 -4.608758 0.000000 0.000000 0.000000 -0.356311 1.988801 -77.531977 24.130881 -14.364895 1.193104 -0.087106 -2.860552 -3.564214 10.572521 -2.692729 25.103133 -4.941868 26.884914 -7.067648 -6.341504 4.444071 -2.483248 -0.000002 -0.000003 -0.000002 2.365274 3.599896 -10.988821 -2.155217 2.456405 -20.995067 -1.884882 4.848729 -16.777784 0.000001 -0.000001 0.000004 -1.979301 5.663884 -19.397189 0.263518 5.094020 -32.960837 -0.650612 1.128068 -17.681985 0.000000 0.000000 -0.000001 -4.973529 10.099545 -17.079209 4.008765 4.052776 -39.734492 2.119413 3.153526 -22.070568 -0.000001 -0.000002 -0.000002 0.556176 6.268267 3.845626 0.000000 0.000000 0.000000 -8.206175 7.015581 74.793706 12.132284 14.618278 -3.985077 0.884276 7.994520 -8.002573 15.443464 -0.640618 -16.981949 -6.846844 -23.948638 7.034681 -11.585110 5.800458 5.195336 0.000003 -0.000000 0.000001 2.207195 -1.878362 4.882439 -2.162685 -2.438021 14.608701 -1.900302 -4.847950 10.390385 -0.000004 -0.000001 0.000000 -2.054334 -5.247009 8.987158 0.267242 -5.087497 22.379871 -0.664156 -1.139447 7.099771 -0.000000 -0.000003 -0.000001 -4.976077 -10.118972 7.977851 4.000139 -4.036008 31.781686 2.108484 -3.144169 14.117581 0.000002 0.000001 0.000001 -37.494993 -4.497950 -4.557519 43.079820 0.661489 0.263715 22.923035 2.268709 11.933639 -24.999151 0.019465 0.037158 -0.000000 -0.000000 -0.000001 -9.805666 -13.242279 5.547227 31.891208 4.853911 2.038957 5.376981 -0.870597 -10.572699 -27.627301 1.148731 1.134234 0.000000 -0.000000 -0.000000 
0.823916 35.223907 1.675315 -2.031383 2.021629 -2.070104 6.506098 0.172703 -0.308560 -2.164171 -0.087648 1.327396 0.000000 0.000000 0.000000 -2.103373 -0.002019 1.355804 -6.706181 -1.103626 -0.543467 2.558714 1.719133 0.758874 -0.000000 0.000000 0.000000 1.326059 3.845521 -5.238607 0.000000 0.000000 0.000000 -0.005113 2.080358 -77.146488 25.494458 -14.592182 1.554053 -0.146904 -1.828997 -3.393085 10.582436 -2.571681 25.114944 -4.591327 27.403931 -7.081722 -6.138074 4.853979 -2.392970 -0.000002 -0.000002 0.000001 2.360836 3.576184 -11.553922 -2.154912 2.455395 -21.434322 -1.884014 4.846266 -17.216979 -0.000000 0.000001 0.000000 -1.975814 5.661594 -19.885855 0.263938 5.096259 -33.589579 -0.648954 1.128187 -18.310899 -0.000000 0.000000 -0.000002 -4.971225 10.095526 -17.590864 4.008823 4.051166 -40.358109 2.118670 3.152334 -22.694212 -0.000000 -0.000000 0.000001 0.568236 6.440964 3.658632 0.000000 0.000000 0.000000 -8.430290 8.119875 74.878312 10.227179 15.268102 -3.522362 0.993494 8.010051 -8.560326 15.361480 -0.581186 -17.128707 -7.026029 -23.666609 7.035590 -11.606592 5.839945 5.208220 0.000003 0.000001 0.000002 2.177040 -1.597687 4.972943 -2.162277 -2.437670 14.381243 -1.899671 -4.846156 10.162992 -0.000002 -0.000001 0.000001 -2.101426 -4.960086 9.150796 0.267298 -5.086206 22.567490 -0.664581 -1.142813 7.287373 -0.000004 0.000000 0.000001 -4.974896 -10.117128 8.122864 3.996897 -4.031301 32.807256 2.106009 -3.140364 15.143236 0.000003 -0.000000 -0.000002 -37.904893 -2.742148 -4.246169 38.043703 -1.041204 0.116517 24.840414 3.568932 10.685159 -24.999020 0.025109 0.048793 0.000000 0.000001 0.000000 -8.243950 -14.095747 5.215662 31.522621 6.477412 2.249965 4.016349 -0.796293 -11.022850 -27.825718 1.119663 1.113535 0.000000 -0.000000 0.000000 
